<svg xmlns="http://www.w3.org/2000/svg" viewBox="0 0 1440 900" width="1440" height="900" preserveAspectRatio="xMidYMid slice">
  <defs>
    <linearGradient id="g1" x1="0" y1="0" x2="1" y2="1">
      <stop offset="0%" stop-color="#0b1020"/>
      <stop offset="100%" stop-color="#111735"/>
    </linearGradient>
    <radialGradient id="glow" cx="70%" cy="20%" r="60%">
      <stop offset="0%" stop-color="#4f7cff" stop-opacity="0.35"/>
      <stop offset="100%" stop-color="#4f7cff" stop-opacity="0"/>
    </radialGradient>
    <radialGradient id="glow2" cx="20%" cy="80%" r="60%">
      <stop offset="0%" stop-color="#1abc9c" stop-opacity="0.25"/>
      <stop offset="100%" stop-color="#1abc9c" stop-opacity="0"/>
    </radialGradient>
  </defs>
  <rect width="1440" height="900" fill="url(#g1)"/>
  <circle cx="1000" cy="180" r="520" fill="url(#glow)"/>
  <circle cx="280" cy="760" r="520" fill="url(#glow2)"/>
  <g opacity="0.08" fill="none" stroke="#9aa3c4">
    <path d="M0 200 Q 240 120 480 200 T 960 200 T 1440 200"/>
    <path d="M0 260 Q 240 180 480 260 T 960 260 T 1440 260"/>
    <path d="M0 320 Q 240 240 480 320 T 960 320 T 1440 320"/>
    <path d="M0 380 Q 240 300 480 380 T 960 380 T 1440 380"/>
    <path d="M0 440 Q 240 360 480 440 T 960 440 T 1440 440"/>
    <path d="M0 500 Q 240 420 480 500 T 960 500 T 1440 500"/>
  </g>
</svg>
